# xmcd
#
# Track frame offsets:
#	150
#	15360
#	27670
#	48217
#	63140
#	78677
#	95050
#	111012
#	131335
#	144705
#	160410
#
# Disc length: 2190 seconds
#
# Revision: 0
# Processed by: cddbd v1.5.2PL0 Copyright (c) Steve Scherf et al.
# Submitted via: EasyCDDAExtractor 11.1.0.1
#
DISCID=8e088c0b
DTITLE=Pedersen - Cadillac cowboy
DYEAR=1900
DGENRE=country
TTITLE0=I'll stop when I think I'm doing the wrong thing
TTITLE1=I quit
TTITLE2=Country songs
TTITLE3=Cadillac cowboy
TTITLE4=Emptiest arms in the world
TTITLE5=Sweet little sixteen
TTITLE6=California blues
TTITLE7=It's not fair it's not true and it's not right
TTITLE8=Till the mountains disappear
TTITLE9=Our love can't make up for all the wrong
TTITLE10=Tribute to the guys 
EXTD=
EXTT0=
EXTT1=
EXTT2=
EXTT3=
EXTT4=
EXTT5=
EXTT6=
EXTT7=
EXTT8=
EXTT9=
EXTT10=
PLAYORDER=
